<?xml version="1.0" encoding="utf-8"?>
<!-- Generator: Adobe Illustrator 27.0.0, SVG Export Plug-In . SVG Version: 6.00 Build 0)  -->
<svg version="1.1" id="katman_1" xmlns="http://www.w3.org/2000/svg" xmlns:xlink="http://www.w3.org/1999/xlink" x="0px" y="0px"
	 viewBox="0 0 168.1 40" style="enable-background:new 0 0 168.1 40;" xml:space="preserve">
<style type="text/css">
	.st0{fill:#FFFFFF;}
</style>
<g id="logo-2">
	<g id="Group_4">
		<g id="Group_1">
			<path id="Path_1" class="st0" d="M56.1,25.5v2h-1.7v-2H56.1z M54.4,38v-9.7h1.7V38H54.4z"/>
			<path id="Path_2" class="st0" d="M61.5,38l-2.3-4.8V38h-1.7v-9.7H59l2.3,4.8v-4.9H63V38C63,38,61.5,38,61.5,38z"/>
			<path id="Path_3" class="st0" d="M68.3,37.4c-0.5,0.5-1.2,0.8-1.9,0.8c-1.1,0.1-2.1-0.4-2.7-1.3l1.1-1.5c0.4,0.5,1,0.8,1.6,0.7
				c0.7,0,1-0.3,1-0.8c0-0.4-0.2-0.8-0.6-0.8L66,34.2c-1.3-0.2-1.9-1.2-1.9-2.8c-0.1-0.8,0.2-1.6,0.8-2.3c0.5-0.5,1.1-0.8,1.8-0.8
				c0.9,0,1.8,0.4,2.3,1.1L68,31.1c-0.3-0.4-0.8-0.6-1.4-0.6c-0.2,0-0.4,0.1-0.6,0.2c-0.2,0.2-0.3,0.4-0.3,0.7
				c0,0.4,0.2,0.7,0.6,0.8l0.8,0.2c1.3,0.2,1.9,1.2,1.9,3C69.1,36,68.8,36.8,68.3,37.4L68.3,37.4z"/>
			<path id="Path_4" class="st0" d="M74.2,38l-0.3-1.4h-2.2L71.3,38h-1.7l2.6-9.7h1.4l2.6,9.7H74.2L74.2,38z M72.8,32l-0.6,2.6h1.2
				L72.8,32L72.8,32z"/>
			<path id="Path_5" class="st0" d="M80.7,38l-2.3-4.8V38h-1.7v-9.7h1.5l2.3,4.8v-4.9h1.7V38C82.2,38,80.7,38,80.7,38z"/>
			<path id="Path_6" class="st0" d="M85.3,25.5v2h-1.7v-2H85.3z M83.6,38v-9.7h1.7V38H83.6z"/>
			<path id="Path_7" class="st0" d="M92.1,34.1V38h-1.7v-3.9l-2.1-5.8h1.9l1.1,3.5l1.1-3.5h1.9C94.2,28.3,92.1,34.1,92.1,34.1z"/>
			<path id="Path_8" class="st0" d="M98.1,38l-0.3-1.4h-2.2L95.3,38h-1.8l2.6-9.7h1.4L100,38C100,38,98.1,38,98.1,38z M96.8,32
				l-0.6,2.6h1.2L96.8,32L96.8,32z"/>
			<path id="Path_9" class="st0" d="M104.3,38l-1.2-3.6h-0.6V38h-1.7v-9.7h2.8c0.7,0,1.3,0.3,1.7,0.8c0.5,0.7,0.7,1.5,0.7,2.3
				c0.1,1-0.3,1.9-1.1,2.5l1.5,4L104.3,38L104.3,38L104.3,38z M103.4,30.5h-1v2h1c0.5,0,0.8-0.5,0.8-1
				C104.1,30.9,103.8,30.5,103.4,30.5L103.4,30.5z"/>
			<path id="Path_10" class="st0" d="M112.3,35.3c0,0.8-0.3,1.5-0.9,2c-0.4,0.5-1,0.7-1.7,0.7h-2.6v-9.7h2.6c0.6,0,1.2,0.2,1.7,0.7
				c0.5,0.6,0.8,1.3,0.9,2c0,0.3,0.1,1,0.1,2.1C112.4,33.9,112.4,34.6,112.3,35.3L112.3,35.3z M110.4,31.1c-0.1-0.3-0.5-0.6-0.8-0.5
				h-0.8V36h0.8c0.4,0,0.7-0.2,0.8-0.5c0.1-0.3,0.2-0.7,0.2-1.1v-1.1C110.7,32.5,110.6,31.8,110.4,31.1L110.4,31.1L110.4,31.1z"/>
			<path id="Path_11" class="st0" d="M113.6,38v-9.7h1.7V38H113.6z"/>
			<path id="Path_12" class="st0" d="M121.6,38v-4.6l-1,2.4h-1.1l-1-2.4V38h-1.7v-9.7h1.7l1.6,4.2l1.6-4.2h1.7V38H121.6L121.6,38z"
				/>
			<path id="Path_13" class="st0" d="M132.1,35.3c0,0.8-0.3,1.5-0.9,2c-0.4,0.5-1,0.7-1.7,0.7h-2.6v-9.7h2.6c0.6,0,1.2,0.2,1.7,0.7
				c0.5,0.6,0.8,1.3,0.9,2c0.1,0.7,0.1,1.4,0.1,2.1C132.2,34.3,132.1,35,132.1,35.3L132.1,35.3z M130.2,31.1
				c-0.1-0.3-0.5-0.6-0.8-0.5h-0.8V36h0.8c0.4,0,0.7-0.2,0.8-0.5c0.1-0.3,0.2-0.7,0.1-1.1v-1.1C130.4,32.5,130.4,31.8,130.2,31.1
				L130.2,31.1L130.2,31.1z"/>
			<path id="Path_14" class="st0" d="M133.3,38v-9.7h4.8v2.1h-3V32h2.6v2.1H135v1.7h3v2.1L133.3,38C133.3,37.9,133.3,38,133.3,38z"
				/>
			<path id="Path_15" class="st0" d="M142.9,38l-1.2-3.6h-0.6V38h-1.7v-9.7h2.8c0.7,0,1.3,0.3,1.7,0.8c0.5,0.7,0.7,1.5,0.7,2.3
				c0.1,1-0.4,1.9-1.1,2.5l1.5,4L142.9,38L142.9,38L142.9,38z M142,30.5h-1v2h1c0.5,0,0.8-0.5,0.8-1C142.8,30.9,142.5,30.5,142,30.5
				L142,30.5z"/>
			<path id="Path_16" class="st0" d="M149.7,38l-2.3-4.8V38h-1.7v-9.7h1.5l2.3,4.8v-4.9h1.7V38C151.2,38,149.7,38,149.7,38z"/>
			<path id="Path_17" class="st0" d="M152.7,38v-9.7h4.8v2.1h-3V32h2.6v2.1h-2.6v1.7h3v2.1L152.7,38C152.7,37.9,152.7,38,152.7,38z"
				/>
			<path id="Path_18" class="st0" d="M163.7,35.5c-0.1,0.5-0.3,1.1-0.6,1.5c-0.5,0.7-1.2,1.1-2,1.1c-0.8,0-1.5-0.4-2-1.1
				c-0.3-0.5-0.5-1.1-0.6-1.7c-0.1-0.7-0.1-1.4-0.1-2c0-0.7,0-1.4,0.1-2c0.1-0.6,0.3-1.2,0.6-1.7c0.4-0.6,1.2-1,2-1.1
				c1.5,0,2.5,1.2,2.7,3.2h-1.7c-0.1-0.8-0.5-1.1-1-1.1c-0.5,0-0.8,0.4-0.8,1c-0.1,0.6-0.1,1.2-0.1,1.7c0,0.6,0,1.2,0.1,1.7
				c0.1,0.7,0.4,1,0.8,1c0.7,0,1.1-0.5,1.1-1.4v-0.2h-1.1v-2h2.7v1.4C163.9,34.4,163.9,35,163.7,35.5L163.7,35.5z M162.4,27.2
				c-0.3,0.4-0.7,0.6-1.2,0.6c-0.5,0-1-0.2-1.3-0.5c-0.4-0.5-0.5-1-0.5-1.6h1.1c0,0.2,0.1,0.4,0.3,0.5c0.1,0.1,0.3,0.1,0.5,0.1
				c0.5,0,0.7-0.2,0.7-0.6h1.1C162.9,26.3,162.7,26.8,162.4,27.2L162.4,27.2z"/>
			<path id="Path_19" class="st0" d="M166.8,25.5v2H165v-2H166.8z M165,38v-9.7h1.7V38H165z"/>
		</g>
		<g id="Group_3">
			<path id="Path_20" class="st0" d="M61,13.8V22h-3.6v-8.2L53.1,2h3.9l2.3,7.2L61.5,2h3.9L61,13.8L61,13.8z"/>
			<path id="Path_21" class="st0" d="M66.9,22V2h9.8v4.3h-6.3v3.3h5.4V14h-5.4v3.5h6.3v4.4L66.9,22L66.9,22L66.9,22z"/>
			<path id="Path_22" class="st0" d="M90,16.3c-0.1,1.6-0.8,3.1-1.8,4.2c-0.9,1-2.2,1.5-3.5,1.4h-5.4V2h5.4c1.3,0,2.6,0.5,3.5,1.4
				c1.1,1.2,1.7,2.7,1.8,4.2c0.1,0.7,0.2,2.1,0.2,4.3C90.1,14.2,90.1,15.6,90,16.3z M86.2,7.4c-0.3-0.7-1-1.2-1.7-1.1h-1.6v11.2h1.6
				c0.8,0,1.4-0.4,1.7-1.1c0.2-0.7,0.4-1.4,0.4-2.2v-2.3C86.6,9.5,86.5,8,86.2,7.4L86.2,7.4L86.2,7.4z"/>
			<path id="Path_23" class="st0" d="M113.3,20.4c-0.8,1-2,1.6-3.3,1.6h-6.4V2h6c1.3-0.1,2.5,0.5,3.3,1.4c0.9,1.3,1.4,2.8,1.3,4.4
				c0.1,1.5-0.5,2.9-1.6,3.9c1.2,1.1,1.9,2.7,1.8,4.3C114.6,17.6,114.2,19.1,113.3,20.4L113.3,20.4z M109.5,6.4h-2.2v3.3h2.2
				c0.8,0,1.3-0.5,1.3-1.7C110.8,6.9,110.3,6.4,109.5,6.4L109.5,6.4z M109.7,14h-2.4v3.5h2.4c0.9,0,1.3-0.6,1.3-1.7
				S110.6,14,109.7,14L109.7,14z"/>
			<path id="Path_24" class="st0" d="M125.1,22l-0.7-3H120l-0.7,3h-3.7l5.3-20h2.7l5.3,20H125.1L125.1,22z M122.3,9.5l-1.3,5.4h2.5
				L122.3,9.5z"/>
			<path id="Path_25" class="st0" d="M138.4,20.6c-1,1-2.4,1.5-3.9,1.5c-2.2,0.1-4.3-0.9-5.5-2.6l2.3-3.2c0.8,1,2,1.5,3.3,1.4
				c1.4,0,2-0.6,2-1.8c0.1-0.8-0.4-1.6-1.2-1.7l-1.7-0.3c-2.6-0.5-3.9-2.4-3.9-5.8c-0.1-1.7,0.5-3.4,1.6-4.8c0.9-1,2.3-1.6,3.7-1.6
				c1.9-0.1,3.8,0.8,4.9,2.4l-2.3,3.1c-0.7-0.8-1.7-1.3-2.7-1.2c-0.4,0-0.9,0.2-1.2,0.4c-0.4,0.4-0.6,0.9-0.6,1.4
				c-0.1,0.8,0.5,1.4,1.3,1.5l1.7,0.3c2.6,0.5,3.9,2.5,3.9,6.1C140.2,17.6,139.6,19.3,138.4,20.6L138.4,20.6z"/>
			<path id="Path_26" class="st0" d="M150.6,22l-0.7-3h-4.5l-0.7,3H141l5.3-20h2.7l5.3,20H150.6L150.6,22z M147.8,9.5l-1.3,5.4h2.5
				L147.8,9.5z"/>
			<path id="Path_27" class="st0" d="M163.9,22l-3.3-8.2l-1.2,2V22h-3.6V2h3.6V9l4.2-7.1h4.4l-4.9,8.1l5.1,11.9L163.9,22L163.9,22z"
				/>
			<g id="Group_2">
				<rect id="Rectangle_1" x="92.6" y="6.6" class="st0" width="3.6" height="15.4"/>
				<rect id="Rectangle_2" x="92.6" y="2" class="st0" width="3.6" height="3.6"/>
			</g>
		</g>
		<rect id="Rectangle_3" x="133.1" y="22.4" class="st0" width="2.9" height="2.1"/>
	</g>
	<g id="Group_5">
		<path id="Path_28" class="st0" d="M4.1,11.9c-0.3,0.6-0.8,1.1-1.2,1.5c-0.5,0.5-2,2.2-0.1,4.7c0.8-0.6,1.3-1.4,1.4-2.4
			C4.3,14.4,4,14.1,4.1,11.9L4.1,11.9z"/>
		<path id="Path_29" class="st0" d="M0.8,15.5L0.8,15.5c0.1,0.7,0.3,1.3,0.7,1.9c1,1.1,1.4,2.5,1.1,3.9c-0.8-0.6-1.5-1.5-2-2.4
			C0.3,17.8,0.4,16.6,0.8,15.5z"/>
		<path id="Path_30" class="st0" d="M5,16.6c-0.3,0.4-0.6,0.8-1,1.1c-0.5,0.4-1.7,1.1-0.9,3.6c0.5-0.5,1-1,1.4-1.6
			C5.1,18.8,5.3,17.7,5,16.6L5,16.6z"/>
		<path id="Path_31" class="st0" d="M0.1,19.2c0.1,0.6,0.5,1.1,1,1.5c0.8,0.7,2.1,2,2.6,5.1c-1.1-0.5-2.1-1.2-2.8-2.1
			C0.1,22.3-0.2,20.7,0.1,19.2z"/>
		<path id="Path_32" class="st0" d="M0.8,24.4c0.2,0.4,0.6,0.8,1,1.1C3.7,26.4,5.1,28,5.7,30c-1.2-0.1-2.2-0.6-3.1-1.4
			C1.5,27.5,0.8,26,0.8,24.4L0.8,24.4z"/>
		<path id="Path_33" class="st0" d="M4.3,25.7c-0.4-0.7-0.7-1.6-0.8-2.4c0-1.2,1.1-1.8,1.4-2.6c0.2-0.3,0.3-0.6,0.4-1
			C5.4,19.6,6.8,22.1,4.3,25.7L4.3,25.7z"/>
		<path id="Path_34" class="st0" d="M6,23.4c0,0.7-0.2,1.3-0.5,1.9c-0.5,0.9-0.7,1.9-0.3,2.9c0.3,0.5,0.7,1,1.1,1.5
			c0.4-1.1,0.6-2.2,0.7-3.3C6.8,25.3,6.5,24.3,6,23.4L6,23.4z"/>
		<path id="Path_35" class="st0" d="M2.8,29.4c0.3,0.4,0.8,0.7,1.3,0.8c1.1,0.2,2,0.7,2.9,1.4c0.7,0.6,1.3,1.4,1.8,2.1
			c-1.2,0.2-2.3-0.1-3.3-0.6C4.1,32.2,3.1,30.9,2.8,29.4L2.8,29.4z"/>
		<path id="Path_36" class="st0" d="M7.3,27c0.2,0.6,0.2,1.3,0,1.9c-0.3,1.4-0.6,2.6,1.7,4.2C9.6,30.9,9,28.5,7.3,27L7.3,27z"/>
		<path id="Path_37" class="st0" d="M9.6,30.3c0.3,0.6,0.4,1.3,0.4,2c0,1.2,0,2.9,2.6,3.6c-0.1-1.2-0.4-2.4-1-3.5
			C11.1,31.6,10.4,30.9,9.6,30.3L9.6,30.3z"/>
		<path id="Path_38" class="st0" d="M5.8,33.8c0.4,0.3,0.9,0.5,1.4,0.5c1.3-0.1,2.6,0.2,3.6,1c0.6,0.3,1.1,0.8,1.5,1.3
			c-1.2,0.5-2.6,0.5-3.8,0C7.2,36.1,6.3,35.1,5.8,33.8L5.8,33.8z"/>
		<path id="Path_39" class="st0" d="M9.6,37.4c0.3,0.2,0.7,0.2,1.1,0.2c1-0.4,2.2-0.5,3.3-0.2c0.8,0.2,1.6,0.5,2.3,1.1
			c-0.9,0.9-2.1,1.3-3.3,1.1C11.5,39.2,10.4,38.5,9.6,37.4z"/>
		<path id="Path_40" class="st0" d="M12.4,33c1.1,0.4,2,1.1,2.7,2c0.5,0.9,1,1.9,1.4,2.9c-0.9-0.1-1.7-0.4-2.4-0.9
			C13.1,36,13.4,34.5,12.4,33L12.4,33z"/>
		<path id="Path_41" class="st0" d="M47.6,11.9c0.3,0.6,0.8,1.1,1.2,1.5c0.5,0.5,2,2.2,0.1,4.7c-0.8-0.6-1.3-1.4-1.4-2.4
			C47.6,14.5,47.7,13.2,47.6,11.9z"/>
		<path id="Path_42" class="st0" d="M51,15.5L51,15.5c-0.1,0.7-0.3,1.3-0.7,1.9c-1,1.1-1.4,2.5-1.1,3.9c0.8-0.6,1.5-1.5,2-2.4
			C51,18.9,51.6,17,51,15.5z"/>
		<path id="Path_43" class="st0" d="M46.6,16.6c0.3,0.4,0.6,0.8,1,1.1c0.5,0.4,1.7,1.1,0.9,3.6c-0.5-0.5-1-1-1.4-1.6
			C46.6,18.8,46.4,17.7,46.6,16.6L46.6,16.6z"/>
		<path id="Path_44" class="st0" d="M51.6,19.2c-0.2,0.6-0.5,1.1-1,1.5c-0.8,0.7-2.1,2-2.6,5.1c1.1-0.5,2.1-1.2,2.8-2.1
			C51.6,22.3,51.9,20.7,51.6,19.2L51.6,19.2z"/>
		<path id="Path_45" class="st0" d="M50.9,24.4c-0.2,0.4-0.6,0.8-1,1.1C48,26.4,46.6,28,45.9,30C48.8,29.7,50.9,27.3,50.9,24.4
			L50.9,24.4z"/>
		<path id="Path_46" class="st0" d="M47.5,25.7c0.4-0.7,0.7-1.6,0.8-2.4c0-1.2-1.1-1.8-1.4-2.6c-0.2-0.3-0.3-0.6-0.5-1
			C46.3,19.6,44.9,22.1,47.5,25.7z"/>
		<path id="Path_47" class="st0" d="M45.7,23.4c0,0.7,0.2,1.3,0.5,1.9c0.5,0.9,0.7,1.9,0.3,2.9c-0.3,0.5-0.7,1-1.1,1.5
			c-0.4-1.1-0.6-2.2-0.7-3.3C44.9,25.3,45.2,24.3,45.7,23.4L45.7,23.4z"/>
		<path id="Path_48" class="st0" d="M48.9,29.4c-0.3,0.4-0.8,0.7-1.3,0.8c-1,0.2-2,0.7-2.9,1.4c-0.7,0.6-1.3,1.3-1.8,2.1
			c1.2,0.2,2.3,0,3.3-0.6C47.6,32.2,48.5,30.9,48.9,29.4L48.9,29.4z"/>
		<path id="Path_49" class="st0" d="M44.3,27c-0.2,0.6-0.2,1.3,0,1.9c0.3,1.4,0.6,2.6-1.7,4.2C42.6,33.2,41.6,29.4,44.3,27L44.3,27z
			"/>
		<path id="Path_50" class="st0" d="M42.1,30.3c-0.3,0.6-0.4,1.3-0.5,2c0,1.2,0,2.9-2.6,3.6c0.1-1.2,0.5-2.4,1-3.5
			C40.6,31.6,41.3,30.9,42.1,30.3z"/>
		<path id="Path_51" class="st0" d="M45.9,33.8c-0.4,0.3-0.9,0.5-1.4,0.5c-1.3-0.1-2.6,0.2-3.6,1c-0.6,0.3-1.1,0.8-1.5,1.3
			c1.2,0.5,2.6,0.5,3.8,0C44.5,36.1,45.5,35.1,45.9,33.8L45.9,33.8z"/>
		<path id="Path_52" class="st0" d="M42.1,37.4c-0.3,0.2-0.7,0.2-1.1,0.2c-1-0.4-2.2-0.5-3.3-0.2c-0.8,0.2-1.6,0.5-2.3,1.1
			c0.9,0.9,2.1,1.3,3.3,1.1C40.1,39.2,41.3,38.5,42.1,37.4z"/>
		<path id="Path_53" class="st0" d="M39.3,33c-1,0.4-2,1.1-2.7,2c-0.5,0.9-1,1.9-1.4,2.9c0.8-0.1,1.7-0.4,2.3-0.9
			C38.5,36,38.3,34.5,39.3,33L39.3,33z"/>
		<path id="Path_54" class="st0" d="M35.9,0c7.6,5.5,9.2,16.1,3.7,23.7s-16.1,9.2-23.7,3.7S6.6,11.3,12.2,3.7c1-1.4,2.3-2.7,3.7-3.7
			C6.4,5.5,3.3,17.6,8.8,27.1s17.6,12.6,27.1,7.1s12.6-17.6,7.1-27.1C41.2,4.1,38.8,1.7,35.9,0z"/>
		<path id="Path_55" class="st0" d="M34.7,3.3c0.2-0.2,0.4-0.4,0.5-0.7c0.2-0.3-0.2-0.1-0.5,0.3c-0.5,0.4-1.5,0.3-3,0.2
			c-1.3-0.2-2.6-0.3-3.9-0.2c-1,0.2-1.8,0.7-2.4,1.5C25,4.7,24.8,5.1,24.6,5c-0.6-0.1-1.2-0.4-1.8-0.7c-0.4-0.2-0.9-0.3-1.4-0.4
			h-1.4c-0.8,0-2.1-0.2-2.4-0.2c-0.3,0-0.6-0.2-0.8-0.4c-0.2-0.2-0.2-0.1-0.1,0.1c0.1,0.2,0.2,0.3,0.4,0.5C17.1,4,17,4.2,17,4.2
			c0,0.1,0.1-0.1,0.2-0.1c0.1-0.1,0.1-0.1,0.5-0.1c0.4,0,0.7,0.1,1.1,0.2c0.4,0.2,0.7,0.3,1.1,0.4c0.1,0,0.2,0.1,0.3,0.4
			c0.1,0.5,0,0.9-0.2,1.4c-0.2,0.4-0.7,1.2-0.8,1.5c-0.2,0.3-0.5,0.5-0.9,0.4c-0.4,0-0.8-0.1-1.1-0.4c-0.4-0.2-0.6-0.1-0.6,0.1
			c-0.1,0.1,0,0.3-0.1,0.5c-0.1,0.2-0.2,0.5-0.2,0.8c0,0.3,0.1,0.3,0.1,0.2s0.5-0.6,0.5-0.7c0.4,0,0.8,0.1,1.2,0.2
			c0.6,0.2,1.2,0.1,1.7-0.2c0.6-0.4,1.3-1.1,1.4-1.1s0.2,0,0.7,0.5c0.5,0.4,1.4,1.4,1.4,1.4c-0.3,0-0.6,0-0.8-0.1
			c-0.4-0.1-0.6-0.5-1-0.6s-0.5,0.4-0.5,0.4c-0.1,0.2-0.2,0.4-0.3,0.5c-0.2,0.3-0.3,0.9-0.2,0.9s0.3-0.2,0.5-0.4l0.5-0.4
			c0,0,1.1,0.4,1.7,0.6s0.7,0.1,0.7,0.1c0.1,0.1,0.2,0.3,0.3,0.4c0,0.1-0.1,0.4-0.1,0.5c-0.1,0.2,0.1,0.2,0.2,0.2
			c0.1,0.1,0.2,0.2,0.5,0.4c0.3,0.1,0.5,0.2,0.8,0.1c0.1-0.1-0.1-0.3-0.5-0.6c-0.3-0.4-0.5-0.8-0.6-1.3c0.4-0.1,0.8-0.4,1.1-0.7
			c0.7-0.8,1.4-1.6,2.2-2.3c0.4-0.2,0.8,0.4,1.4,0.9s1,0.9,1.6,1.4c0.5,0.5,0.9,1.1,1.2,1.8c0.1,0.3,0.2,0.7,0.1,1.1
			c0.1,0.2,0.2,0.2,0.5,0.3c0.2,0,0.5,0.4,1,0.6c0.5,0.1,0.9,0.1,1.4-0.1c0.1-0.1-0.6-0.4-0.8-0.5c-0.3-0.1-0.5-0.2-0.7-0.4
			c-0.4-0.9-0.8-1.8-1.1-2.7c-0.4-0.9-0.9-1.7-1.5-2.4c-0.6-0.7-1-1.6-1-2.5c0.1-1,0.3-1.1,1.7-1.4c1.6-0.1,2.8,0,2.8,0
			c0.2,0,0.2,0.2,0.5,0.2c0.2,0-0.1-0.4-0.1-0.5C34.3,3.5,34.5,3.3,34.7,3.3L34.7,3.3z M26.8,6.1c-0.4,0.5-1,1.1-1.6,1.9
			s-1.1,1.5-1.1,1.5c-0.5-0.8-1-1.6-1.4-2.5c-0.1-0.5-0.1-1.2,0.1-1.4s0.9,0.1,1.4,0.2c0.2,0.1,0.5,0.1,0.8,0
			c0.6-0.3,1.1-0.7,1.7-1.1c0.3-0.2,0.4-0.2,0.4,0C27.1,5.1,27,5.6,26.8,6.1L26.8,6.1L26.8,6.1z"/>
		<circle id="Ellipse_1" class="st0" cx="21.7" cy="2.7" r="1"/>
		<circle id="Ellipse_2" class="st0" cx="29.1" cy="1.4" r="1.3"/>
		<path id="Path_56" class="st0" d="M11.3,10.4c-0.8,2.9-0.6,5.9,0.5,8.7c2.3,6.3,8.4,10.3,15.1,10c7.2-0.2,13.2-5.6,14.2-12.7
			c-1.1,2.2-2.3,4.3-3.6,6.4C36,24.6,34,26.1,31.8,27c-2.3,1-4.9,1.3-7.4,1c-3.1-0.3-6.1-1.7-8.3-3.9c-1.4-1.4-2.6-3-3.3-4.9
			c-0.1-0.2-0.2-0.3-0.3-0.5c-0.2-0.5-0.4-1-0.6-1.5c-0.2-0.6-0.3-1.2-0.4-1.8C10.9,13.8,10.8,12,11.3,10.4z"/>
		<path id="Path_57" class="st0" d="M11.5,10.7c0.1,0.5,0.3,0.9,0.4,1.4c0.2,0.4,0.2,0.3,0.2,0.3c0.1,0.3,0.1,0.6,0.2,0.8
			c0.5,1.9,1.3,3.6,2.4,5.2c1.2,1.8,2.9,3.3,4.8,4.3c2.1,1,4.4,1.7,6.7,1.9c2.2,0.3,4.5,0.1,6.7-0.6c2-0.7,3.8-1.9,5.2-3.5
			c0.9-1.1,1.7-2.3,2.3-3.6c-0.5,1.5-1.3,2.8-2.2,4c-1.4,1.7-1.5,1.8-1.7,2c-1.1,0.8-2.3,1.4-3.6,1.8c-2,0.7-4.1,0.9-6.2,0.7
			c-3-0.2-6-1.1-8.6-2.6c-2.4-1.6-4.3-3.9-5.4-6.5C11.6,14.6,11.3,12.6,11.5,10.7L11.5,10.7z"/>
		<path id="Path_58" class="st0" d="M20.7,12.2c-0.2,0.4-0.3,0.7-0.3,1.1c0.1,0.4,0.1,0.6,0,0.8c0,0.1-0.1,0.4-0.1,0.6
			s0.1,0.2,0,0.4c-0.2,0.3-0.3,0.6-0.3,1c-0.1,0.4-0.3,1.4-0.4,1.8s-0.5,3.2-0.6,3.9c-0.1,0.8-0.2,1.7-0.3,2.6
			c0,0.8-0.1,1.4-0.1,1.5s-0.1,0-0.1-0.1c0-0.1,0-0.2-0.1-0.2c-0.1-0.1-0.1-0.1-0.1-0.2c0-0.1,0.1-0.2,0-0.2c-0.1,0-0.2,0.1-0.2,0.2
			c0,0.1-0.1,0.1-0.1,0.1S18,25.2,18,25.1s0-0.1-0.1-0.1c-0.1-0.1-0.2-0.2-0.1-0.3c0-1.5,0.2-3,0.5-4.4c0.4-2,0.9-3.9,1.5-5.8
			C20.1,13.7,20.5,11.8,20.7,12.2L20.7,12.2z"/>
		<path id="Path_59" class="st0" d="M15.5,10.9c-0.1,0.2-0.2,0.4-0.2,0.7c0,0.2-0.1,0.8-0.1,0.9s0.1,0.1,0.1,0.2s0.1,0.3,0.1,0.4
			v0.1c-0.2,0.4-0.3,0.8-0.3,1.2c-0.2,1.4-0.4,2.8-0.4,4.2c0,1.2-0.1,3-0.1,3.3v0.3c0-0.1,0-0.1-0.1-0.1c-0.1,0-0.1-0.1-0.1-0.1l0,0
			c0-0.1,0,0-0.1-0.1c0-0.1,0-0.4-0.1-0.2c0,0.1-0.1,0.1-0.1,0.1c0,0,0-0.1-0.1,0.1c0,0.1-0.1,0.2-0.1,0.2l-0.3-0.5
			c-0.1-1.2-0.1-2.4,0.1-3.6c0.2-1.6,0.6-3.3,1.1-4.9C15,11.6,15.6,10.6,15.5,10.9L15.5,10.9z"/>
		<path id="Path_60" class="st0" d="M11.5,10.2c0.4,0.8,0.8,1.5,1.3,2.1c0.3,0.4,0.6,0.6,1.1,0.8c0.4,0.5,0.9,1,1.4,1.4
			c0.7,0.4,0.6,0.4,0.8,0.5c1.2,1.1,2.5,2.1,4,2.8c2.4,1.2,5,1.9,7.6,2.2c3.4,0.5,6.9-0.1,9.9-1.7c1-0.5,2-1.2,2.9-2
			c-1,1.3-2.2,2.4-3.6,3.3c-2.5,1.2-5.3,1.8-8,1.5c-3.1-0.2-6.2-1-8.9-2.4c-1.4-0.8-2.7-1.7-3.9-2.7C13.1,13.7,11.1,10.1,11.5,10.2
			L11.5,10.2z"/>
		<path id="Path_61" class="st0" d="M40.3,16.1c-1.6,0.8-3.3,1.2-5,1.2c-3.4-0.1-6.8-0.6-10.1-1.4c-2.5-0.6-5.1-1.4-7.5-2.4
			c-2.1-0.8-4.1-1.8-6-2.8c-0.1-0.1,0.1-0.1,0.4,0.1c0.6,0.3,1.2,0.6,1.9,0.8c0.3,0.1,0.5,0,0.7,0.1c0.2,0.1,0.8,0.4,0.8,0.4
			s0.1-0.1,0.3,0c0.3,0.1,0.6,0.2,0.9,0.2c0.1,0,0.1,0,0.2,0.1c2.9,1.3,6,2.2,9.1,2.7C30.8,16.3,35.6,16.6,40.3,16.1L40.3,16.1z"/>
		<path id="Path_62" class="st0" d="M25.9,13.6c0,0-0.1-0.1-0.2,0.2c-0.6,2.1-1.1,4.2-1.4,6.4c-0.4,2.1-0.6,4.3-0.5,6.5
			c0.1,0.5,0.1,0.4,0.1,0.4c0,0.1,0.1,0,0.1,0.1c0,0.2,0,0.4,0.1,0.5c0.1,0.1,0.1,0,0.1-0.1s0.1-0.3,0.1-0.2s0,0.1,0.1,0.2v0.1
			c0.1,0.1,0.1,0.1,0.1,0.2s0,0.2,0.1,0.2s0.1-0.1,0.1-0.3c-0.1-1.5-0.1-3,0.1-4.5c0.2-2.6,0.6-5.2,0.6-5.6c0.1-0.4,0.2-0.8,0.3-1.2
			c0-0.2,0-0.5-0.1-0.7c-0.1-0.4-0.1-0.9-0.1-1.4C25.8,14.1,25.9,13.9,25.9,13.6L25.9,13.6z"/>
		<path id="Path_63" class="st0" d="M31.3,15c0,0-0.1-0.1-0.2,0.4c-0.5,1.4-0.9,2.9-1.1,4.4c-0.3,2-0.4,4-0.4,6.1
			c0.1,0.8,0.3,1.1,0.4,1.1S30,26.9,30,27c0,0.2,0.1,0.3,0.1,0.5c0.1,0.1,0.1,0.1,0.1,0c0-0.1,0.1-0.5,0.1-0.4
			c0.1,0.1,0,0.1,0.1,0.1c0.1,0.1,0.1,0.1,0.1,0.1c0,0.1,0.1,0.1,0.3,0.1s-0.1-0.3-0.3-2.4c0-1.6,0-3.2,0.1-4.8c0-0.7,0.1-1.4,0.2-2
			c0.1-0.5,0.2-0.6,0.1-0.7c-0.1-0.3-0.1-0.6-0.1-1c0-0.2,0-0.5,0-0.8C31.1,15.6,31.2,15.3,31.3,15L31.3,15z"/>
		<path id="Path_64" class="st0" d="M36.9,15.8c0,0-0.1-0.1-0.2,0.2c-0.5,1.2-0.8,2.4-1.1,3.7c0,0-0.3,1.5-0.5,2.7
			c-0.1,0.7-0.2,1.5-0.1,2.2c0.1,0.1,0.1,0,0.1,0.1v0.5c0.3-0.2,0.6-0.4,0.8-0.7c0-0.3,0-0.6,0.1-0.9c0.1-0.6,0.1-1.2,0.2-1.8
			c0-0.4,0.1-0.8,0.2-1.2c0-0.7,0.1-1.4,0.2-2c0.1-0.3,0.2-0.6,0.3-0.9c-0.2-0.2-0.2-0.5-0.2-0.8c0-0.4-0.1-0.5,0-0.7
			C36.8,16.1,36.9,15.9,36.9,15.8L36.9,15.8z"/>
		<path id="Path_65" class="st0" d="M16.2,38c1.6,0.5,3.2,0.8,4.9,0.9c2.2,0.1,3.6,0.8,3.8,1.1c-1.2-0.3-2.4-0.5-3.6-0.5
			C19.7,39.2,17.2,39.2,16.2,38z"/>
		<path id="Path_66" class="st0" d="M35.6,38c-1.6,0.5-3.2,0.8-4.9,0.9c-2.2,0.1-3.6,0.8-3.8,1.1c1.2-0.3,2.4-0.5,3.6-0.5
			C32.1,39.2,34.6,39.2,35.6,38z"/>
	</g>
</g>
</svg>
