<?xml version="1.0" encoding="UTF-8"?><svg id="katman_1" xmlns="http://www.w3.org/2000/svg" viewBox="0 0 168.14 40"><defs><style>.cls-1{fill:#da8627;}.cls-2{fill:#224388;}</style></defs><g id="logo-2"><g id="Group_4"><g id="Group_1"><path id="Path_1" class="cls-2" d="M56.1,25.45v1.97h-1.74v-1.97h1.74Zm-1.74,12.58v-9.7h1.74v9.7h-1.74Z"/><path id="Path_2" class="cls-2" d="M61.47,38.03l-2.27-4.85v4.85h-1.74v-9.7h1.51l2.27,4.85v-4.85h1.74v9.7h-1.51Z"/><path id="Path_3" class="cls-2" d="M68.29,37.42c-.52,.48-1.19,.75-1.89,.76-1.05,.06-2.05-.43-2.65-1.29l1.14-1.51c.38,.49,.98,.75,1.59,.68,.68,0,.99-.3,.99-.83,.04-.39-.22-.75-.61-.83l-.83-.15c-1.29-.23-1.89-1.21-1.89-2.8-.07-.83,.21-1.65,.76-2.27,.46-.52,1.13-.8,1.82-.76,.92-.04,1.8,.38,2.34,1.13l-1.06,1.51c-.33-.41-.84-.63-1.36-.61-.22,0-.44,.08-.61,.23-.19,.18-.3,.42-.3,.68-.02,.37,.24,.69,.61,.76l.83,.15c1.29,.23,1.89,1.21,1.89,2.95,.07,.81-.21,1.6-.75,2.2Z"/><path id="Path_4" class="cls-2" d="M74.2,38.03l-.3-1.44h-2.2l-.38,1.44h-1.74l2.58-9.7h1.36l2.58,9.7h-1.89Zm-1.36-5.99l-.61,2.58h1.21l-.61-2.58Z"/><path id="Path_5" class="cls-2" d="M80.72,38.03l-2.27-4.85v4.85h-1.74v-9.7h1.51l2.27,4.85v-4.85h1.74v9.7h-1.51Z"/><path id="Path_6" class="cls-2" d="M85.34,25.45v1.97h-1.74v-1.97h1.74Zm-1.74,12.58v-9.7h1.74v9.7h-1.74Z"/><path id="Path_7" class="cls-2" d="M92.08,34.09v3.94h-1.74v-3.94l-2.12-5.76h1.89l1.14,3.49,1.06-3.49h1.89l-2.12,5.76Z"/><path id="Path_8" class="cls-2" d="M98.14,38.03l-.3-1.44h-2.2l-.38,1.44h-1.82l2.58-9.7h1.36l2.58,9.7h-1.82Zm-1.36-5.99l-.61,2.58h1.21l-.61-2.58Z"/><path id="Path_9" class="cls-2" d="M104.28,38.03l-1.21-3.64h-.61v3.64h-1.74v-9.7h2.8c.68,0,1.31,.31,1.74,.83,.48,.66,.72,1.46,.68,2.27,.08,.97-.35,1.92-1.14,2.5l1.51,4.01h-2.04v.08Zm-.91-7.5h-.99v1.97h.99c.46,0,.76-.46,.76-.99,0-.61-.3-.99-.76-.99Z"/><path id="Path_10" class="cls-2" d="M112.31,35.3c-.02,.78-.34,1.51-.91,2.04-.43,.45-1.04,.7-1.67,.68h-2.58v-9.7h2.58c.63-.02,1.23,.23,1.67,.68,.51,.57,.83,1.29,.91,2.04,0,.3,.08,.99,.08,2.12,.03,.71,0,1.42-.08,2.12Zm-1.89-4.24c-.13-.34-.47-.56-.83-.53h-.76v5.45h.76c.36,.03,.7-.19,.83-.53,.11-.34,.16-.7,.15-1.06v-1.14c.11-.73,.06-1.49-.15-2.2h0Z"/><path id="Path_11" class="cls-2" d="M113.6,38.03v-9.7h1.74v9.7h-1.74Z"/><path id="Path_12" class="cls-2" d="M121.55,38.03v-4.62l-.99,2.42h-1.14l-.99-2.42v4.62h-1.74v-9.7h1.67l1.59,4.24,1.59-4.24h1.67v9.7h-1.67Z"/><path id="Path_13" class="cls-2" d="M132.08,35.3c-.02,.78-.34,1.51-.91,2.04-.43,.45-1.04,.7-1.67,.68h-2.58v-9.7h2.58c.63-.02,1.23,.23,1.67,.68,.51,.57,.83,1.29,.91,2.04,.08,.7,.11,1.41,.08,2.12,0,1.14-.08,1.82-.08,2.12Zm-1.89-4.24c-.13-.34-.47-.56-.83-.53h-.76v5.45h.76c.36,.03,.7-.19,.83-.53,.11-.34,.16-.7,.15-1.06v-1.14c.11-.73,.06-1.49-.15-2.2h0Z"/><path id="Path_14" class="cls-2" d="M133.29,38.03v-9.7h4.77v2.12h-3.03v1.59h2.58v2.12h-2.58v1.67h3.03v2.12h-4.77v.08Z"/><path id="Path_15" class="cls-2" d="M142.91,38.03l-1.21-3.64h-.61v3.64h-1.74v-9.7h2.8c.68,0,1.31,.31,1.74,.83,.48,.66,.72,1.46,.68,2.27,.08,.97-.35,1.92-1.14,2.5l1.51,4.01h-2.04v.08Zm-.91-7.5h-.99v1.97h.99c.46,0,.76-.46,.76-.99,0-.61-.3-.99-.76-.99Z"/><path id="Path_16" class="cls-2" d="M149.73,38.03l-2.27-4.85v4.85h-1.74v-9.7h1.51l2.27,4.85v-4.85h1.74v9.7h-1.51Z"/><path id="Path_17" class="cls-2" d="M152.69,38.03v-9.7h4.77v2.12h-3.03v1.59h2.58v2.12h-2.58v1.67h3.03v2.12h-4.77v.08Z"/><path id="Path_18" class="cls-2" d="M163.74,35.53c-.07,.55-.28,1.07-.6,1.52-.47,.66-1.23,1.06-2.04,1.06-.79-.02-1.52-.41-1.97-1.06-.34-.52-.54-1.12-.61-1.74-.07-.68-.1-1.36-.08-2.04-.03-.68,0-1.37,.08-2.04,.05-.62,.26-1.22,.61-1.74,.45-.65,1.18-1.04,1.97-1.06,1.51,0,2.5,1.21,2.73,3.18h-1.74c-.15-.76-.46-1.06-.99-1.06-.46,0-.76,.38-.83,.99-.08,.58-.1,1.16-.08,1.74-.03,.58,0,1.17,.08,1.74,.15,.68,.38,.99,.83,.99,.68,0,1.06-.46,1.06-1.44v-.15h-1.06v-1.97h2.73v1.36c.06,.58,.03,1.17-.08,1.74Zm-1.36-8.33c-.29,.37-.74,.6-1.21,.61-.49,.04-.97-.16-1.29-.53-.35-.45-.54-1.02-.53-1.59h1.06c-.01,.22,.11,.43,.3,.53,.14,.08,.29,.14,.46,.15,.46,0,.68-.23,.68-.61h1.06c.02,.53-.17,1.05-.53,1.44h0Z"/><path id="Path_19" class="cls-2" d="M166.78,25.45v1.97h-1.74v-1.97h1.74Zm-1.74,12.58v-9.7h1.74v9.7h-1.74Z"/></g><g id="Group_3"><path id="Path_20" class="cls-2" d="M61.02,13.79v8.18h-3.56V13.79L53.07,1.97h3.86l2.27,7.2,2.27-7.2h3.86l-4.32,11.82Z"/><path id="Path_21" class="cls-2" d="M66.93,21.97V1.97h9.85V6.29h-6.29v3.33h5.38v4.39h-5.38v3.48h6.29v4.39h-9.85v.08Z"/><path id="Path_22" class="cls-2" d="M90.04,16.29c-.12,1.58-.76,3.07-1.82,4.24-.9,.96-2.17,1.48-3.49,1.44h-5.38V1.97h5.38c1.31-.03,2.58,.49,3.49,1.44,1.06,1.17,1.7,2.66,1.82,4.24,.08,.68,.15,2.12,.15,4.32-.08,2.2-.08,3.64-.15,4.32Zm-3.86-8.86c-.28-.71-.98-1.17-1.74-1.14h-1.59v11.21h1.59c.76,0,1.44-.44,1.74-1.14,.25-.71,.38-1.45,.38-2.2v-2.27c0-2.42-.08-3.94-.38-4.47h0Z"/><path id="Path_23" class="cls-2" d="M113.29,20.38c-.76,1.03-1.98,1.63-3.26,1.59h-6.36V1.97h5.99c1.27-.06,2.5,.47,3.33,1.44,.95,1.26,1.41,2.82,1.29,4.39,.07,1.48-.51,2.92-1.59,3.94,1.23,1.09,1.89,2.68,1.82,4.32,.1,1.54-.33,3.06-1.21,4.32Zm-3.79-14.02h-2.2v3.26h2.2c.83,0,1.29-.53,1.29-1.67,0-1.06-.45-1.59-1.29-1.59h0Zm.15,7.65h-2.42v3.48h2.42c.91,0,1.29-.61,1.29-1.74s-.38-1.74-1.29-1.74h0Z"/><path id="Path_24" class="cls-2" d="M125.11,21.97l-.68-2.95h-4.47l-.68,2.95h-3.71L120.87,1.97h2.73l5.3,20h-3.78Zm-2.8-12.42l-1.29,5.38h2.5l-1.21-5.38Z"/><path id="Path_25" class="cls-2" d="M138.37,20.61c-1.04,.99-2.43,1.53-3.86,1.51-2.18,.14-4.27-.87-5.53-2.65l2.27-3.18c.78,.99,2,1.53,3.26,1.44,1.36,0,2.04-.61,2.04-1.82,.12-.81-.41-1.57-1.21-1.74l-1.74-.3c-2.58-.53-3.94-2.42-3.94-5.76-.08-1.73,.49-3.43,1.59-4.77,.94-1.05,2.3-1.63,3.71-1.59,1.95-.1,3.81,.82,4.92,2.42l-2.27,3.11c-.66-.83-1.67-1.28-2.73-1.21-.45-.01-.88,.15-1.21,.45-.41,.36-.63,.89-.61,1.44-.05,.77,.52,1.44,1.29,1.52l1.74,.3c2.65,.53,3.94,2.5,3.94,6.06,.16,1.76-.45,3.5-1.67,4.78Z"/><path id="Path_26" class="cls-2" d="M150.57,21.97l-.68-2.95h-4.47l-.68,2.95h-3.71l5.3-20h2.73l5.3,20h-3.78Zm-2.8-12.42l-1.29,5.38h2.5l-1.21-5.38Z"/><path id="Path_27" class="cls-2" d="M163.9,21.97l-3.33-8.18-1.21,1.97v6.29h-3.56V1.97h3.56v7.05l4.17-7.05h4.39l-4.92,8.11,5.15,11.89h-4.24Z"/><g id="Group_2"><rect id="Rectangle_1" class="cls-2" x="92.61" y="6.59" width="3.56" height="15.38"/><rect id="Rectangle_2" class="cls-2" x="92.61" y="1.97" width="3.56" height="3.64"/></g></g><rect id="Rectangle_3" class="cls-2" x="133.07" y="22.42" width="2.95" height="2.12"/></g><g id="Group_5"><path id="Path_28" class="cls-1" d="M4.05,11.89c-.35,.55-.75,1.06-1.21,1.51-.53,.53-1.97,2.2-.08,4.7,.75-.58,1.26-1.42,1.44-2.35,.08-1.37-.23-1.67-.15-3.87Z"/><path id="Path_29" class="cls-1" d="M.79,15.53H.79c.09,.67,.32,1.32,.68,1.89,.96,1.07,1.38,2.52,1.14,3.94-.84-.64-1.52-1.47-1.97-2.42-.34-1.12-.29-2.32,.15-3.41Z"/><path id="Path_30" class="cls-1" d="M5.03,16.59c-.26,.43-.6,.82-.98,1.14-.53,.38-1.74,1.14-.91,3.64,.53-.49,1.01-1.02,1.44-1.59,.52-.97,.68-2.1,.45-3.18Z"/><path id="Path_31" class="cls-1" d="M.11,19.17c.15,.6,.5,1.13,.98,1.51,.83,.68,2.12,1.97,2.58,5.15-1.09-.47-2.06-1.19-2.8-2.12C.09,22.33-.17,20.72,.11,19.17Z"/><path id="Path_32" class="cls-1" d="M.79,24.39c.23,.43,.57,.8,.98,1.06,1.88,.92,3.3,2.56,3.94,4.55-1.15-.14-2.22-.62-3.11-1.36-1.15-1.11-1.8-2.64-1.82-4.24Z"/><path id="Path_33" class="cls-1" d="M4.28,25.68c-.44-.74-.7-1.57-.76-2.42,0-1.21,1.06-1.82,1.44-2.65,.2-.3,.35-.64,.45-.99,0,0,1.36,2.5-1.14,6.06Z"/><path id="Path_34" class="cls-1" d="M6.02,23.41c-.03,.66-.21,1.31-.53,1.89-.54,.86-.65,1.92-.3,2.88,.31,.53,.66,1.04,1.06,1.51,.37-1.08,.6-2.2,.68-3.33-.09-1.04-.4-2.05-.91-2.96Z"/><path id="Path_35" class="cls-1" d="M2.76,29.39c.29,.44,.76,.72,1.29,.76,1.05,.23,2.03,.7,2.88,1.36,.69,.63,1.3,1.35,1.82,2.12-1.15,.16-2.31-.06-3.33-.61-1.35-.79-2.31-2.11-2.65-3.64Z"/><path id="Path_36" class="cls-1" d="M7.31,26.97c.21,.61,.21,1.28,0,1.89-.3,1.36-.61,2.65,1.74,4.24,.58-2.21-.09-4.56-1.74-6.14Z"/><path id="Path_37" class="cls-1" d="M9.58,30.3c.27,.62,.43,1.29,.45,1.97,0,1.21,0,2.88,2.58,3.64-.12-1.21-.45-2.39-.99-3.49-.53-.84-1.23-1.56-2.05-2.12Z"/><path id="Path_38" class="cls-1" d="M5.79,33.79c.38,.32,.87,.48,1.36,.46,1.29-.13,2.59,.22,3.64,.99,.57,.34,1.08,.78,1.51,1.29-1.2,.54-2.58,.54-3.79,0-1.26-.48-2.25-1.47-2.73-2.73Z"/><path id="Path_39" class="cls-1" d="M9.58,37.42c.33,.17,.7,.22,1.06,.15,1.03-.43,2.18-.51,3.26-.23,.83,.15,1.62,.52,2.27,1.06-.87,.88-2.11,1.28-3.33,1.06-1.31-.22-2.48-.96-3.26-2.04Z"/><path id="Path_40" class="cls-1" d="M12.38,32.96c1.05,.39,1.97,1.07,2.65,1.97,.54,.92,1,1.88,1.36,2.88-.85-.09-1.66-.4-2.35-.91-.91-.91-.68-2.43-1.67-3.94Z"/><path id="Path_41" class="cls-1" d="M47.61,11.89c.35,.55,.75,1.06,1.21,1.51,.53,.53,1.97,2.2,.08,4.7-.75-.58-1.26-1.42-1.44-2.35,.14-1.28,.2-2.57,.15-3.86Z"/><path id="Path_42" class="cls-1" d="M50.95,15.53h0c-.09,.67-.32,1.32-.68,1.89-.96,1.07-1.38,2.52-1.14,3.94,.84-.64,1.52-1.47,1.97-2.42-.08,0,.53-1.97-.15-3.41Z"/><path id="Path_43" class="cls-1" d="M46.63,16.59c.26,.43,.6,.82,.99,1.14,.53,.38,1.74,1.14,.91,3.64-.53-.49-1.01-1.02-1.44-1.59-.52-.97-.68-2.1-.45-3.18Z"/><path id="Path_44" class="cls-1" d="M51.63,19.17c-.15,.6-.5,1.13-.99,1.51-.83,.68-2.12,1.97-2.58,5.15,1.09-.47,2.06-1.19,2.8-2.12,.78-1.38,1.05-2.99,.76-4.55Z"/><path id="Path_45" class="cls-1" d="M50.87,24.39c-.23,.43-.57,.8-.99,1.06-1.88,.92-3.3,2.56-3.94,4.54,2.86-.28,5.01-2.73,4.92-5.61Z"/><path id="Path_46" class="cls-1" d="M47.46,25.68c.44-.74,.7-1.57,.76-2.42,0-1.21-1.06-1.82-1.44-2.65-.2-.3-.35-.64-.46-.99,0,0-1.44,2.5,1.14,6.06Z"/><path id="Path_47" class="cls-1" d="M45.72,23.41c.03,.66,.21,1.31,.53,1.89,.54,.86,.65,1.92,.3,2.88-.31,.53-.66,1.04-1.06,1.51-.37-1.08-.6-2.2-.68-3.33,.05-1.05,.36-2.06,.91-2.96Z"/><path id="Path_48" class="cls-1" d="M48.9,29.39c-.29,.44-.76,.72-1.29,.76-1.05,.23-2.03,.7-2.88,1.36-.69,.63-1.3,1.34-1.82,2.12,1.15,.16,2.32-.05,3.33-.61,1.35-.79,2.31-2.11,2.65-3.64Z"/><path id="Path_49" class="cls-1" d="M44.35,26.97c-.21,.61-.21,1.28,0,1.89,.3,1.36,.61,2.65-1.74,4.24,0,.08-.99-3.71,1.74-6.14Z"/><path id="Path_50" class="cls-1" d="M42.08,30.3c-.27,.62-.43,1.29-.46,1.97,0,1.21,0,2.88-2.58,3.64,.12-1.21,.45-2.39,.99-3.49,.53-.84,1.23-1.56,2.05-2.12Z"/><path id="Path_51" class="cls-1" d="M45.94,33.79c-.38,.32-.87,.48-1.36,.46-1.29-.13-2.59,.22-3.64,.99-.57,.34-1.08,.78-1.51,1.29,1.2,.54,2.58,.54,3.79,0,1.26-.48,2.25-1.47,2.73-2.73Z"/><path id="Path_52" class="cls-1" d="M42.08,37.42c-.33,.17-.7,.22-1.06,.15-1.03-.43-2.18-.51-3.26-.23-.83,.15-1.62,.52-2.27,1.06,.87,.88,2.11,1.28,3.33,1.06,1.31-.22,2.48-.96,3.26-2.04Z"/><path id="Path_53" class="cls-1" d="M39.28,32.96c-1.05,.39-1.97,1.07-2.65,1.97-.54,.92-1,1.88-1.36,2.88,.85-.09,1.66-.4,2.35-.91,.91-.91,.68-2.42,1.67-3.94Z"/><path id="Path_54" class="cls-2" d="M35.87,0c7.57,5.52,9.23,16.14,3.71,23.71-5.52,7.57-16.14,9.23-23.71,3.71C8.3,21.9,6.64,11.28,12.16,3.71c1.04-1.42,2.29-2.67,3.71-3.71C6.45,5.52,3.29,17.64,8.81,27.06c5.52,9.42,17.64,12.58,27.06,7.06s12.58-17.64,7.06-27.06c-1.71-2.92-4.14-5.35-7.06-7.06Z"/><path id="Path_55" class="cls-2" d="M34.66,3.26c.21-.2,.39-.43,.53-.68,.15-.3-.15-.08-.53,.3-.46,.38-1.51,.3-3.03,.23-1.3-.18-2.62-.26-3.94-.23-.95,.19-1.78,.73-2.35,1.52-.3,.3-.53,.68-.76,.61-.63-.14-1.25-.37-1.82-.68-.43-.21-.89-.34-1.37-.38h-1.44c-.83,0-2.12-.15-2.35-.15-.3-.01-.57-.15-.76-.38-.23-.23-.23-.08-.15,.08,.11,.17,.23,.32,.38,.45,.08,.08-.08,.3-.08,.3,0,.08,.15-.08,.23-.08,.08-.08,.15-.08,.53-.08,.36,.02,.72,.1,1.06,.23,.35,.17,.7,.32,1.06,.45,.15,0,.23,.08,.3,.45,.07,.47,0,.95-.23,1.36-.23,.45-.68,1.21-.83,1.52-.18,.32-.54,.5-.91,.45-.41-.02-.8-.15-1.14-.38-.38-.23-.61-.08-.61,.08-.08,.15,0,.3-.15,.53-.15,.22-.23,.49-.23,.76,0,.3,.08,.3,.15,.23s.45-.61,.53-.68c.41,0,.83,.08,1.21,.23,.56,.22,1.19,.14,1.67-.23,.61-.45,1.29-1.06,1.44-1.14s.23,0,.68,.45c.53,.45,1.36,1.36,1.44,1.36-.28,.04-.57,.02-.83-.08-.38-.15-.61-.53-.99-.61s-.46,.38-.53,.45c-.09,.18-.19,.36-.3,.53-.23,.3-.3,.91-.23,.91s.3-.23,.46-.38l.46-.45s1.14,.38,1.67,.61,.68,.15,.68,.15c.12,.14,.22,.29,.3,.45,0,.08-.08,.38-.08,.53-.08,.23,.08,.23,.23,.23,.15,.08,.23,.23,.46,.38,.26,.11,.55,.16,.83,.15,.08-.08-.15-.3-.53-.61-.31-.37-.52-.81-.61-1.29,.42-.15,.81-.38,1.14-.68,.68-.81,1.41-1.57,2.2-2.27,.38-.23,.83,.38,1.44,.91s.99,.91,1.59,1.44c.5,.54,.91,1.15,1.21,1.82,.13,.34,.16,.71,.08,1.06,.08,.23,.23,.23,.46,.3,.23,0,.53,.38,.99,.61,.45,.14,.93,.12,1.36-.08,.08-.08-.61-.45-.83-.53-.26-.1-.49-.25-.68-.45-.43-.89-.81-1.8-1.14-2.73-.38-.88-.89-1.7-1.51-2.42-.63-.68-.98-1.57-.99-2.5,.08-.98,.3-1.06,1.67-1.44,1.59-.08,2.8,0,2.8,0,.15,0,.23,.23,.46,.23,.15,0-.08-.38-.08-.45-.08-.07,.15-.22,.3-.3Zm-7.88,2.8c-.38,.53-.99,1.06-1.59,1.89s-1.06,1.52-1.06,1.52c-.55-.79-1.03-1.63-1.44-2.5-.15-.53-.15-1.21,.15-1.44s.91,.08,1.44,.15c.24,.09,.51,.09,.76,0,.59-.29,1.15-.65,1.67-1.06,.3-.15,.38-.23,.38,0,.05,.5-.05,1-.3,1.44h0Z"/><circle id="Ellipse_1" class="cls-2" cx="21.7" cy="2.73" r=".99"/><circle id="Ellipse_2" class="cls-2" cx="29.13" cy="1.44" r="1.29"/><path id="Path_56" class="cls-2" d="M11.32,10.38c-.76,2.89-.57,5.94,.53,8.71,2.31,6.26,8.41,10.31,15.08,10,7.2-.25,13.19-5.6,14.24-12.73-1.07,2.2-2.29,4.32-3.64,6.36-1.52,1.89-3.5,3.35-5.76,4.24-2.34,.99-4.91,1.33-7.42,.99-3.14-.29-6.08-1.66-8.33-3.86-1.44-1.36-2.57-3.02-3.33-4.85-.06-.17-.17-.33-.3-.45-.16-.52-.36-1.03-.61-1.51-.16-.6-.28-1.21-.38-1.82-.53-1.65-.56-3.41-.08-5.08Z"/><path id="Path_57" class="cls-2" d="M11.47,10.68c.1,.47,.26,.93,.45,1.36,.23,.38,.23,.3,.23,.3,.06,.28,.13,.56,.23,.83,.52,1.85,1.31,3.61,2.35,5.23,1.22,1.8,2.86,3.28,4.77,4.32,2.09,1.02,4.35,1.66,6.67,1.89,2.24,.27,4.51,.06,6.67-.61,1.99-.69,3.77-1.89,5.15-3.49,.94-1.06,1.7-2.26,2.27-3.56-.51,1.45-1.26,2.8-2.2,4.01-1.44,1.74-1.51,1.82-1.74,2.05-1.13,.76-2.35,1.37-3.64,1.82-2,.66-4.12,.89-6.21,.68-3.02-.18-5.96-1.09-8.56-2.64-2.41-1.6-4.31-3.86-5.45-6.51-.86-1.76-1.2-3.73-.99-5.69Z"/><path id="Path_58" class="cls-2" d="M20.72,12.2c-.2,.35-.3,.74-.3,1.14,.08,.45,.08,.61,0,.76,0,.15-.08,.45-.08,.61s.08,.23,0,.38c-.17,.3-.27,.64-.3,.99-.08,.38-.3,1.44-.38,1.82s-.53,3.18-.61,3.94c-.15,.83-.23,1.74-.3,2.58,0,.83-.08,1.44-.08,1.51s-.08,0-.08-.08c.01-.08-.02-.17-.08-.23-.08-.08-.08-.15-.15-.23,0-.08,.08-.23,0-.23-.11,.03-.19,.12-.23,.23,0,.08-.08,.15-.08,.08s-.08-.3-.08-.38,0-.15-.08-.15c-.1-.06-.16-.18-.15-.3,.03-1.48,.2-2.95,.53-4.39,.4-1.95,.91-3.87,1.51-5.76,.3-.84,.75-2.66,.9-2.27Z"/><path id="Path_59" class="cls-2" d="M15.49,10.91c-.11,.21-.19,.44-.23,.68,0,.23-.08,.83-.08,.91s.08,.15,.08,.23,.08,.3,.08,.38v.08c-.17,.38-.27,.79-.3,1.21-.23,1.38-.35,2.77-.38,4.17,0,1.21-.08,2.95-.08,3.26v.3c0-.06-.03-.11-.08-.15-.08,0-.15-.06-.15-.14,0,0,0,0,0,0,0-.08,0,0-.08-.15,0-.15,0-.38-.08-.23,0,.15-.08,.15-.15,.08,0,0,0-.15-.08,.08-.04,.08-.09,.16-.15,.23l-.3-.45c-.14-1.18-.11-2.38,.08-3.56,.22-1.64,.57-3.26,1.06-4.85,.37-1.36,.9-2.42,.83-2.04Z"/><path id="Path_60" class="cls-2" d="M11.47,10.23c.35,.75,.78,1.46,1.29,2.12,.29,.35,.65,.63,1.06,.83,.43,.51,.91,.97,1.44,1.36,.68,.45,.61,.38,.83,.53,1.19,1.13,2.54,2.08,4.02,2.8,2.4,1.19,4.99,1.93,7.65,2.2,3.4,.46,6.86-.12,9.93-1.67,1.03-.55,1.99-1.21,2.88-1.97-1.01,1.26-2.21,2.36-3.56,3.26-2.48,1.24-5.26,1.76-8.03,1.51-3.11-.19-6.16-1.01-8.94-2.42-1.38-.76-2.68-1.68-3.86-2.73-3.11-2.35-5.08-5.91-4.7-5.83Z"/><path id="Path_61" class="cls-2" d="M40.34,16.14c-1.56,.77-3.26,1.18-5,1.21-3.4-.11-6.77-.56-10.08-1.37-2.55-.63-5.06-1.44-7.5-2.42-2.05-.81-4.05-1.75-5.99-2.8-.08-.15,.08-.08,.45,.15,.6,.34,1.24,.62,1.89,.83,.3,.08,.53,0,.68,.08,.23,.08,.76,.38,.83,.38s.08-.08,.3,0c.3,.09,.6,.17,.91,.23q.08,0,.23,.08c2.91,1.27,5.96,2.18,9.09,2.73,4.65,1.02,9.43,1.32,14.17,.91Z"/><path id="Path_62" class="cls-2" d="M25.94,13.56s-.08-.15-.23,.23c-.63,2.09-1.11,4.21-1.44,6.36-.41,2.15-.59,4.33-.53,6.52,.08,.46,.08,.38,.15,.38,0,.08,.08,0,.08,.08,.01,.18,.04,.36,.08,.53,.08,.08,.08,0,.15-.08s.08-.3,.15-.23,0,.15,.08,.23v.08c.08,.08,.15,.08,.15,.23s0,.23,.08,.23,.15-.15,.15-.3c-.09-1.51-.06-3.03,.08-4.54,.23-2.58,.61-5.23,.61-5.61,.06-.41,.16-.82,.3-1.21,0-.23-.02-.46-.08-.68-.11-.45-.13-.91-.08-1.36,.13-.27,.23-.55,.3-.84Z"/><path id="Path_63" class="cls-2" d="M31.32,15s-.08-.08-.23,.38c-.49,1.43-.87,2.9-1.14,4.39-.31,2-.44,4.03-.38,6.06,.08,.83,.3,1.06,.38,1.14s.08-.08,.08,.08c.01,.16,.06,.32,.15,.45q.08,.08,.08,0c0-.08,.15-.46,.15-.38,.08,.08,0,.15,.08,.15q.08,.08,.08,.15c0,.08,.15,.15,.3,.08s-.15-.3-.3-2.42c-.05-1.59,0-3.19,.15-4.77,.01-.69,.09-1.37,.23-2.05,.15-.45,.23-.61,.15-.68-.07-.32-.09-.65-.08-.99-.04-.25-.04-.51,0-.76,.12-.27,.22-.55,.31-.83Z"/><path id="Path_64" class="cls-2" d="M36.93,15.76s-.08-.15-.23,.23c-.48,1.2-.84,2.44-1.06,3.71,0,0-.3,1.51-.46,2.73-.14,.73-.16,1.47-.08,2.2,.08,.08,.08,0,.08,.08v.53c.3-.2,.57-.43,.83-.68,0-.3,.03-.61,.08-.91,.09-.6,.14-1.21,.15-1.82,.01-.41,.06-.81,.15-1.21,.04-.69,.12-1.37,.23-2.05,.07-.31,.18-.61,.3-.91-.16-.22-.23-.49-.23-.76,0-.38-.08-.53,0-.68,.11-.13,.18-.29,.23-.45Z"/><path id="Path_65" class="cls-1" d="M16.17,37.95c1.6,.5,3.25,.81,4.92,.91,2.2,.08,3.56,.76,3.79,1.14-1.17-.27-2.36-.45-3.56-.53-1.59-.23-4.17-.23-5.15-1.52Z"/><path id="Path_66" class="cls-1" d="M35.57,37.95c-1.6,.5-3.25,.81-4.92,.91-2.2,.08-3.56,.76-3.79,1.14,1.17-.27,2.36-.45,3.56-.53,1.67-.23,4.17-.23,5.15-1.52Z"/></g></g></svg>